<svg version="1.1" id="Layer_1" xmlns="http://www.w3.org/2000/svg" xmlns:xlink="http://www.w3.org/1999/xlink" x="0px" y="0px"
	 width="100%" viewBox="0 0 288 240" enable-background="new 0 0 288 240" xml:space="preserve">
<path fill="#000000" opacity="1.000000" stroke="none" 
	d="
M176.718750,93.223053 
	C186.971039,99.801361 190.743607,109.989006 187.256348,121.028091 
	C184.673187,129.205109 175.368469,136.072144 167.372177,135.672760 
	C166.256088,133.847351 166.672897,131.800323 166.668533,129.840408 
	C166.634354,114.515724 166.611084,99.190773 166.679184,83.866318 
	C166.692810,80.799019 166.119461,78.570068 162.404083,78.768303 
	C160.649567,79.849373 162.028046,83.514168 158.624832,83.195938 
	C155.981842,82.948792 154.924316,81.456383 154.567886,78.994347 
	C154.368668,77.618355 153.122803,77.333969 151.864670,77.313927 
	C150.518097,77.292480 149.562439,77.814056 149.380981,79.211456 
	C149.124908,81.183327 148.156113,82.186462 146.088608,82.113892 
	C143.861740,82.035728 142.754395,80.968170 142.639923,78.735649 
	C142.556686,77.112358 141.573120,76.434990 139.975998,76.449333 
	C138.382339,76.463654 137.425095,77.159210 137.325485,78.774719 
	C137.189270,80.983727 136.101212,82.075562 133.857147,82.144592 
	C131.801437,82.207825 130.798782,81.296371 130.591125,79.268456 
	C130.448181,77.872543 129.489212,77.332657 128.131882,77.353966 
	C126.614487,77.377800 125.489380,77.917015 125.348244,79.567947 
	C125.168213,81.673920 124.272598,82.946167 122.013443,83.166473 
	C119.569778,83.404778 118.929451,82.031448 118.504196,79.981339 
	C118.023697,77.664848 115.430969,79.460197 113.755341,77.420288 
	C113.755341,68.865631 113.747581,59.581413 113.761627,50.297226 
	C113.764572,48.347942 115.022308,47.700218 116.726791,47.742439 
	C131.684845,48.112965 146.741943,46.251305 161.581604,48.985989 
	C170.180069,50.570534 177.851013,54.205326 181.162613,63.327118 
	C184.811203,73.377151 181.451385,82.547310 171.376266,90.121071 
	C172.624878,91.857895 174.872360,91.861053 176.718750,93.223053 
z"/>
<path fill="#000000" opacity="1.000000" stroke="none" 
	d="
M150.531586,111.949524 
	C152.493134,125.088547 152.303894,125.315170 139.814102,125.309357 
	C129.165985,125.304398 128.448761,124.458786 129.834061,113.543236 
	C130.573349,107.718056 134.373550,103.453720 139.345840,102.869804 
	C144.298538,102.288177 148.441879,105.526520 150.531586,111.949524 
z"/>
<path fill="#000000" opacity="1.000000" stroke="none" 
	d="
M122.384460,164.852356 
	C118.650810,170.789551 114.046417,172.688736 108.861122,170.752090 
	C104.211212,169.015381 101.224380,163.623276 102.179291,158.689362 
	C103.463387,152.054565 108.906380,148.416428 115.390053,149.859146 
	C121.389664,151.194153 124.327621,157.211777 122.384460,164.852356 
M109.314255,156.934189 
	C108.322586,158.191681 108.224503,159.668900 108.308884,161.174484 
	C108.462997,163.924622 109.974831,165.454391 112.682640,165.586121 
	C115.349731,165.715897 116.468315,164.018341 116.848053,161.616409 
	C117.638054,156.619598 114.807236,154.498154 109.314255,156.934189 
z"/>
<path fill="#000000" opacity="1.000000" stroke="none" 
	d="
M75.024231,154.899811 
	C74.583099,157.644547 74.262405,159.651566 75.887596,162.157547 
	C78.168488,165.674561 76.127121,169.454407 71.935829,170.570251 
	C69.887657,171.115540 67.673935,171.072235 65.529808,171.215424 
	C62.782925,171.398865 61.622890,170.000183 61.661068,167.311615 
	C61.712994,163.653961 61.483204,159.984543 61.701969,156.339859 
	C61.836788,154.093719 60.359158,150.704208 63.803253,150.027924 
	C67.461494,149.309570 71.540558,148.825089 74.216026,152.696121 
	C74.584053,153.228607 74.725159,153.917953 75.024231,154.899811 
z"/>
<path fill="#000000" opacity="1.000000" stroke="none" 
	d="
M205.302032,152.930679 
	C205.449265,155.298279 204.990982,157.614120 208.095978,157.634918 
	C210.803909,157.653061 210.758514,155.682755 210.872650,153.819977 
	C211.001709,151.713989 211.231934,149.665100 214.134613,149.887604 
	C216.683365,150.082962 216.829758,152.091415 216.873764,153.913223 
	C216.978317,158.241531 216.988785,162.575424 216.891525,166.903793 
	C216.846375,168.913498 216.668716,171.116074 213.790756,171.084442 
	C211.281250,171.056870 210.962540,169.244522 210.853928,167.285812 
	C210.753296,165.471283 210.957748,163.390778 208.256836,163.293732 
	C205.204529,163.184036 205.408508,165.434387 205.358841,167.445267 
	C205.310013,169.422562 205.049057,171.246429 202.432983,171.084763 
	C200.228622,170.948532 199.821289,169.336624 199.817551,167.541168 
	C199.807510,162.710785 199.808975,157.880112 199.855728,153.050034 
	C199.869247,151.652222 200.250275,150.323898 201.872131,150.014267 
	C203.826126,149.641235 205.143677,150.310104 205.302032,152.930679 
z"/>
<path fill="#000000" opacity="1.000000" stroke="none" 
	d="
M196.860718,168.437653 
	C195.853821,173.051254 193.502457,171.555084 191.699890,169.666046 
	C188.361069,166.167068 185.350449,165.985336 182.271133,169.797226 
	C181.015503,171.351593 179.349640,171.578842 177.827576,170.685776 
	C176.076080,169.658112 177.089340,168.029739 177.621628,166.693939 
	C179.463486,162.071716 181.393326,157.484589 183.237503,152.863297 
	C183.968567,151.031372 184.914078,149.696884 187.185394,149.787949 
	C189.233810,149.870087 190.047791,151.181671 190.688278,152.792511 
	C192.710312,157.877899 194.730026,162.964203 196.860718,168.437653 
z"/>
<path fill="#000000" opacity="1.000000" stroke="none" 
	d="
M223.017868,160.119263 
	C224.260788,157.168625 225.150681,154.463104 226.501602,152.011658 
	C228.238037,148.860657 231.507797,148.810852 232.959198,152.006622 
	C235.611511,157.846634 237.873810,163.863754 240.388550,170.027023 
	C237.636383,171.553421 235.866379,171.574203 233.989243,169.310257 
	C231.235779,165.989441 228.064392,166.076981 225.357697,169.387909 
	C224.094711,170.932831 222.773575,171.577789 221.105377,170.792267 
	C218.964188,169.784012 219.964767,168.006104 220.512405,166.491730 
	C221.244415,164.467484 222.079132,162.480362 223.017868,160.119263 
z"/>
<path fill="#000000" opacity="1.000000" stroke="none" 
	d="
M159.879852,169.707855 
	C157.990921,168.305054 158.303314,166.958969 159.274139,165.586533 
	C160.287338,164.154160 161.551178,164.646133 162.846573,165.122040 
	C164.223969,165.628067 165.658279,166.326538 166.958679,164.754807 
	C166.623032,162.220047 164.105896,162.279587 162.618301,161.183334 
	C160.368759,159.525620 159.334122,157.440430 159.825897,154.718079 
	C160.288452,152.157562 162.037827,150.577774 164.440796,149.989120 
	C167.068726,149.345383 169.753571,149.370102 172.104889,151.061844 
	C172.847443,151.596085 173.023880,152.401794 172.706284,153.282593 
	C172.283035,154.456375 171.630966,155.286163 170.222824,155.353424 
	C168.841232,155.419403 167.365936,153.965103 166.026245,155.613831 
	C165.999985,157.638977 167.885559,157.695633 169.053528,158.376602 
	C172.304092,160.271866 174.871628,162.459793 173.428955,166.740234 
	C172.034607,170.877304 168.614944,171.479416 164.949524,171.225525 
	C163.338562,171.113922 161.770935,170.377106 159.879852,169.707855 
z"/>
<path fill="#000000" opacity="1.000000" stroke="none" 
	d="
M141.467209,157.527740 
	C138.702682,160.794785 138.130386,164.303741 138.321808,168.074631 
	C138.405457,169.722748 137.807693,171.041306 135.813263,171.049896 
	C134.275375,171.056519 132.876419,170.262100 133.065887,168.812180 
	C133.951538,162.034470 129.980270,157.199615 126.779587,152.018051 
	C126.556770,151.657318 126.709969,151.064331 126.689056,150.596024 
	C130.426895,149.572006 130.426895,149.572006 135.910767,154.303482 
	C138.577744,152.503784 140.148849,147.785828 145.001053,150.463593 
	C145.282425,153.324478 142.806320,154.972122 141.467209,157.527740 
z"/>
<path fill="#000000" opacity="1.000000" stroke="none" 
	d="
M99.558228,166.110168 
	C97.353287,170.953415 93.518692,172.599152 90.008018,170.593369 
	C88.947304,169.987381 88.009018,169.254028 88.295052,167.887039 
	C88.527344,166.776901 88.801651,165.368744 90.325356,165.500687 
	C93.939323,165.813538 93.854713,163.365997 93.900909,160.970154 
	C93.948830,158.484512 93.913300,155.996216 94.011032,153.512894 
	C94.086792,151.587662 94.450905,149.790405 97.028435,149.886169 
	C99.243752,149.968506 99.747650,151.556274 99.836632,153.289658 
	C100.048851,157.423874 100.328133,161.567551 99.558228,166.110168 
z"/>
<path fill="#000000" opacity="1.000000" stroke="none" 
	d="
M120.722427,180.063599 
	C122.974220,177.419632 125.406639,176.324142 128.471985,177.317612 
	C129.731796,177.725906 131.202011,178.152481 130.889862,179.911514 
	C130.631790,181.365845 129.388474,181.375916 128.152710,181.371017 
	C123.730621,181.353531 123.873108,183.486130 125.373688,186.960327 
	C127.061890,185.456619 124.582352,183.984650 127.173607,182.832642 
	C128.225418,182.647934 130.383377,181.972168 131.781555,183.763565 
	C132.833511,185.111343 132.491425,186.985580 131.465775,188.432770 
	C129.989868,190.515259 127.838821,191.308502 125.372589,190.907791 
	C120.907654,190.182312 119.026497,186.037766 120.722427,180.063599 
z"/>
<path fill="#000000" opacity="1.000000" stroke="none" 
	d="
M113.612961,189.626099 
	C108.331329,191.618378 104.607559,190.299637 103.140984,186.268616 
	C101.787621,182.548767 103.912857,178.393661 107.786774,177.260803 
	C110.875954,176.357437 113.417397,177.386917 115.086021,179.977158 
	C117.236885,183.315979 116.718918,186.545197 113.612961,189.626099 
M111.314026,185.583008 
	C112.044464,183.753220 112.364365,181.924149 109.822975,181.447479 
	C108.294647,181.160797 107.378708,182.323166 107.397858,183.810898 
	C107.427399,186.105072 108.483421,187.153885 111.314026,185.583008 
z"/>
<path fill="#000000" opacity="1.000000" stroke="none" 
	d="
M161.122101,190.097870 
	C159.842819,188.825546 158.875458,187.708191 157.871338,186.548355 
	C156.007248,187.231857 157.179138,191.155350 154.177002,190.176147 
	C151.833649,189.411835 152.968445,187.064697 152.687180,185.387543 
	C152.605881,184.902832 152.603607,184.377396 152.696106,183.895767 
	C153.108368,181.749374 151.448868,178.699387 154.209671,177.629639 
	C157.319672,176.424606 157.985107,180.131012 159.906830,181.600677 
	C161.542313,180.746307 159.736832,176.788391 162.969406,177.698944 
	C165.301041,178.355728 164.170258,180.818619 164.319290,182.497498 
	C164.480209,184.310272 164.316422,186.151398 164.303894,187.980209 
	C164.290497,189.935623 163.341354,190.695847 161.122101,190.097870 
z"/>
<path fill="#000000" opacity="1.000000" stroke="none" 
	d="
M183.816437,189.902481 
	C182.619629,188.731842 183.278870,186.980392 181.857635,186.263168 
	C180.313828,186.148575 180.402588,187.352921 180.240036,188.281296 
	C180.005981,189.617981 179.366318,190.436111 177.914093,190.299026 
	C176.420761,190.158066 176.031387,189.030411 175.981415,187.814224 
	C175.892548,185.651474 175.881760,183.482407 175.931580,181.318130 
	C175.965271,179.854370 175.758041,178.061600 177.679367,177.629257 
	C179.765717,177.159775 180.022018,178.897324 180.464920,180.353104 
	C180.587128,180.754776 181.079803,181.043747 181.353836,181.333054 
	C183.044846,181.047455 182.703644,179.511902 183.313889,178.620300 
	C184.284729,177.201828 185.442261,177.088409 186.573273,178.387100 
	C187.748688,179.736740 187.330200,188.560898 185.964890,189.891602 
	C185.608978,190.238510 184.730743,190.049530 183.816437,189.902481 
z"/>
<path fill="#000000" opacity="1.000000" stroke="none" 
	d="
M210.209778,184.363098 
	C209.379303,186.784317 211.858490,187.736465 211.866806,189.797470 
	C209.407272,191.788544 207.831512,189.578140 206.060883,188.357727 
	C205.011353,188.993668 204.974670,191.028183 203.136902,190.391174 
	C201.450958,189.806808 201.747421,188.329941 201.686142,187.062622 
	C201.614349,185.577728 201.546738,184.075836 201.688675,182.601669 
	C201.865692,180.763168 200.814331,178.380417 203.339752,177.400024 
	C205.460220,176.576828 207.659119,176.914200 209.463104,178.289001 
	C211.495163,179.837631 211.538422,181.897446 210.209778,184.363098 
z"/>
<path fill="#000000" opacity="1.000000" stroke="none" 
	d="
M79.717972,163.892639 
	C79.726410,160.107666 79.730850,156.805664 79.747643,153.503754 
	C79.757835,151.498978 80.199104,149.813080 82.727478,149.924057 
	C85.361137,150.039612 85.311996,152.011520 85.324539,153.853424 
	C85.353775,158.145889 85.375923,162.439301 85.313477,166.731049 
	C85.285706,168.639603 85.694115,171.041306 82.672409,171.060959 
	C79.825211,171.079483 79.811325,168.887482 79.743874,166.851944 
	C79.716537,166.027145 79.726295,165.201111 79.717972,163.892639 
z"/>
<path fill="#000000" opacity="1.000000" stroke="none" 
	d="
M138.146301,184.154480 
	C139.725479,181.616989 139.202530,177.422714 142.831985,177.571930 
	C146.253036,177.712585 146.018906,181.704269 147.157578,184.081314 
	C148.027374,185.897095 149.382736,187.769119 148.693176,190.025146 
	C145.927979,191.786423 144.801804,188.078369 142.383026,188.348831 
	C140.345032,188.576721 139.244308,191.832718 136.591644,189.868088 
	C135.701218,187.802505 137.615356,186.327820 138.146301,184.154480 
z"/>
<path fill="#000000" opacity="1.000000" stroke="none" 
	d="
M189.960052,187.535675 
	C189.915726,185.119049 189.941696,183.137253 189.897751,181.157013 
	C189.824280,177.844666 191.724976,176.791534 194.655487,177.029770 
	C197.402954,177.253128 199.515549,177.944107 196.907608,181.150375 
	C200.431473,183.320694 193.192245,187.056458 199.358566,188.898178 
	C195.036346,191.203796 192.136002,192.484970 189.960052,187.535675 
z"/>
<path fill="#000000" opacity="1.000000" stroke="none" 
	d="
M215.856567,183.035583 
	C216.286163,176.483185 218.655472,175.335281 224.515289,178.946304 
	C219.588440,180.197861 226.783630,185.037872 221.661987,186.277679 
	C222.515305,187.278397 224.090927,187.286560 224.032181,189.117676 
	C223.489212,190.967636 221.667450,190.883759 220.074921,190.828171 
	C214.843292,190.645615 216.038986,186.646103 215.856567,183.035583 
z"/>
<path fill="#000000" opacity="1.000000" stroke="none" 
	d="
M82.258537,190.934113 
	C80.494255,190.419678 78.879082,190.283676 78.434692,188.482910 
	C78.797272,185.988022 81.102676,187.135818 82.559372,186.295807 
	C81.015678,184.226700 77.540680,182.942062 79.397346,179.483109 
	C80.555153,177.326111 82.562111,176.621796 84.895332,177.153519 
	C85.975227,177.399582 87.315475,177.715881 87.184540,179.284897 
	C87.035843,181.066849 85.642151,181.163757 83.725693,180.929016 
	C85.486176,183.436218 89.177765,184.391083 87.857834,187.907288 
	C86.975632,190.257416 84.893150,190.830307 82.258537,190.934113 
z"/>
<path fill="#000000" opacity="1.000000" stroke="none" 
	d="
M91.618362,186.840973 
	C91.599091,184.236694 91.565163,182.075394 91.584412,179.914581 
	C91.595085,178.717606 91.689110,177.441376 93.313606,177.426407 
	C94.841728,177.412323 95.053978,178.580902 95.280426,179.806610 
	C96.451752,186.146790 96.473251,186.142822 99.039024,189.078278 
	C95.289658,191.990982 93.225113,191.491333 91.618362,186.840973 
z"/>
</svg>